<svg width="60" height="60" viewBox="0 0 60 60" fill="none" xmlns="http://www.w3.org/2000/svg">
<path fill-rule="evenodd" clip-rule="evenodd" d="M30.8678 0.827238C30.8436 0.714706 30.7548 0.627271 30.6419 0.604882C30.536 0.583893 30.4278 0.623826 30.3609 0.707046L30.3481 0.724323C27.8433 4.36225 25.815 6.74471 24.3001 8.52409C24.1528 8.69703 24.0105 8.86427 23.873 9.02642C22.3405 10.8336 21.3606 12.0616 21.1117 13.5094C20.242 16.6404 20.6494 20.9075 21.7384 26.6323C21.166 28.1351 20.7709 30.3597 20.5021 32.5178C20.3658 33.6123 20.2612 34.6969 20.1825 35.6725C19.2369 30.4731 17.949 26.853 16.828 23.8689L16.29 22.4418C15.571 20.5282 14.3704 19.2368 12.7024 18.1175C11.2736 17.1586 9.4856 16.3163 7.35742 15.3137C7.02228 15.1558 6.6787 14.9939 6.32676 14.827C6.23996 14.7858 6.13835 14.7907 6.05577 14.8398C5.98354 14.8827 5.93402 14.9547 5.91923 15.0362L5.9151 15.0717C5.81447 16.8945 6.53774 19.0984 7.56249 21.3551C8.48286 23.382 9.66534 25.4904 10.7667 27.4543C10.8962 27.6851 11.0245 27.9139 11.1512 28.1404L11.2687 28.3456C12.5012 30.4506 14.3214 32.1074 15.996 33.6314L16.0024 33.6373C17.7328 35.2122 19.2828 36.629 20.0146 38.2711C19.9617 39.6255 20.2338 41.9314 20.516 43.8886C20.6228 44.6293 20.7317 45.325 20.8266 45.9074C20.5662 45.4474 20.2542 44.901 19.9055 44.301C18.9416 42.6423 17.6969 40.5685 16.4965 38.7686L16.2571 38.4125L16.2546 38.4087L16.1335 38.2407C14.8715 36.5359 13.2881 35.8401 11.6558 35.4669C10.9153 35.2975 10.1587 35.1933 9.42226 35.0919C9.3275 35.0788 9.23308 35.0658 9.13907 35.0527C8.36022 34.9443 7.60716 34.8296 6.89298 34.6356L6.75063 34.5958C6.63556 34.5626 6.51178 34.6037 6.43982 34.6995C6.36791 34.7952 6.36259 34.9256 6.42648 35.0268C8.7756 38.7475 10.1954 40.4645 13.0827 42.9843C14.5407 44.2567 16.5959 45.456 18.2728 46.3326C19.1138 46.7723 19.8648 47.1335 20.4056 47.3847C20.676 47.5103 20.8942 47.6085 21.0449 47.6754C21.0514 47.6783 21.0578 47.681 21.0641 47.6838C21.0697 47.6862 21.0752 47.6886 21.0806 47.691C21.0892 47.7327 21.1016 47.7754 21.1164 47.8187C21.1481 47.9109 21.1979 48.0256 21.2715 48.1702C21.5625 48.7414 22.2762 49.8756 23.9624 52.154C24.3032 53.0231 25.0978 54.2348 26.0051 55.2851C26.4677 55.8207 26.9668 56.3227 27.4601 56.7221C27.9491 57.118 28.7755 57.7858 29.4202 58.0593C30.0649 58.3328 30.1626 58.3328 30.675 58.5085C31.1874 58.6841 33.3802 59.2237 34.413 59.322C35.3939 59.4155 35.5807 59.3999 35.9855 59.3999C36.4604 59.3999 37.2037 59.3999 37.4579 59.3999C38.0416 59.3999 37.876 59.0979 37.7115 58.6244C37.5469 58.1509 37.6059 58.2265 37.3833 57.5362C37.1902 56.9371 36.9611 56.2865 36.5963 55.4165L36.2056 54.4916C35.2654 52.2665 35.7463 50.2991 36.6184 48.8418C37.0558 48.111 37.5903 47.5116 38.0885 47.0797C38.56 46.671 38.9735 46.434 39.2249 46.358C39.3141 46.3764 39.4036 46.3949 39.4935 46.4128L39.7757 46.468C42.7026 47.0292 45.9371 47.3111 47.7606 47.0945L47.9334 47.071C48.7817 46.9419 49.4043 46.629 49.8414 46.1955C50.3066 45.7343 50.5387 45.1596 50.6283 44.5894C50.7176 44.0212 50.6674 43.448 50.5598 42.968C50.4536 42.494 50.2847 42.0815 50.1134 41.8427C50.0768 41.7917 50.061 41.7578 50.054 41.739L50.0554 41.7381C50.0673 41.7286 50.085 41.7169 50.11 41.7031C50.1615 41.6748 50.2288 41.6464 50.3153 41.6132C50.3437 41.6023 50.3746 41.5908 50.4072 41.5786C50.5567 41.523 50.7429 41.4537 50.9025 41.3623C51.1037 41.247 51.3161 41.0681 51.3944 40.7748C51.4864 40.4297 51.2949 40.1618 51.1025 39.9868C50.9096 39.8114 50.6441 39.6612 50.4169 39.5344L50.3744 39.5108C50.1486 39.385 49.9628 39.2815 49.8392 39.1791C49.7905 39.1388 49.7653 39.1095 49.7534 39.092C49.7627 39.0829 49.7808 39.0684 49.8135 39.0499C49.8772 39.0139 49.9703 38.9781 50.0955 38.9421C50.2588 38.8951 50.4385 38.8574 50.6349 38.8162C50.7509 38.7918 50.8728 38.7663 51.0006 38.7368C51.3213 38.663 51.6732 38.5652 51.9401 38.3973C52.0771 38.3111 52.2052 38.1981 52.2932 38.0474C52.3836 37.8926 52.4214 37.7149 52.4015 37.5206C52.3653 37.1662 52.1785 36.8488 51.9672 36.5796C51.7659 36.3232 51.518 36.0808 51.2994 35.867C51.287 35.8549 51.2747 35.8429 51.2625 35.831C51.0241 35.5977 50.8365 35.4089 50.7307 35.2462C50.6793 35.1671 50.6622 35.116 50.6586 35.0877C50.6563 35.0701 50.658 35.0607 50.6708 35.0434C50.7039 34.9981 50.7696 34.9341 50.8798 34.8503C50.9869 34.7688 51.1212 34.6798 51.2777 34.5812C51.3888 34.5112 51.5131 34.4354 51.6446 34.3553C51.8718 34.2167 52.1204 34.0651 52.3587 33.9083C52.7407 33.6569 53.1303 33.3711 53.4421 33.0489C53.7528 32.728 54.0068 32.35 54.0809 31.9127C54.1255 31.6488 54.0553 31.4182 53.9128 31.2226C53.7784 31.0382 53.5819 30.8871 53.3723 30.7532C53.1663 30.6218 52.9227 30.4918 52.6704 30.3573L52.6494 30.3461C52.3859 30.2055 52.107 30.0563 51.8241 29.8832C50.7064 29.1992 49.5339 28.1512 49.3237 25.9409C49.2133 24.7806 49.1581 23.8914 49.1169 23.1593C49.1105 23.045 49.1044 22.9342 49.0985 22.8266C49.0667 22.248 49.0399 21.7618 48.9935 21.3089C48.8817 20.2171 48.6559 19.3169 47.9935 17.7064C47.9902 17.6984 47.9864 17.6905 47.9824 17.6829L47.9695 17.6605L47.7927 17.3873C44.0825 11.713 40.5602 9.97355 37.7345 9.77387C35.4163 9.61006 33.5882 10.5048 32.677 10.9507C32.4756 11.0493 32.3191 11.1259 32.2119 11.1643C32.1114 11.2004 32.0397 11.2886 32.0241 11.3931L32.0216 11.4141C31.6885 15.8421 30.9268 19.871 27.4979 22.9407L27.4761 22.9623C25.8898 24.7201 25.237 25.6341 24.7851 26.9065C24.5629 27.5324 24.3904 28.2408 24.1727 29.1665C24.1512 29.2578 24.1293 29.3513 24.1068 29.4472C23.9004 30.3273 23.647 31.4076 23.2752 32.802C23.2392 32.9373 23.3054 33.079 23.4324 33.1379C23.5594 33.1968 23.7105 33.1559 23.7905 33.041C25.1587 31.0749 26.4929 29.6931 28.1107 28.7002C29.3774 27.9228 30.8305 27.3762 32.632 26.9815C25.6456 31.2807 23.3093 35.0997 22.5424 37.758L22.5048 37.8915C22.1194 39.3038 22.1491 40.7078 22.3268 42.1255C22.4156 42.834 22.542 43.5503 22.6735 44.2738C22.6895 44.3621 22.7057 44.4505 22.7218 44.539C22.8381 45.1766 22.9556 45.8204 23.0543 46.4785C23.056 46.4957 23.0582 46.5133 23.062 46.5309C23.2434 47.7495 23.4435 48.8964 23.6059 49.8277C23.6273 49.9505 23.6481 50.0696 23.6681 50.1846C23.7174 50.4682 23.7614 50.7263 23.7992 50.9546C22.5637 49.2481 22.0169 48.3626 21.7856 47.9084C21.7191 47.778 21.6819 47.6893 21.662 47.6312C21.6611 47.6287 21.6603 47.626 21.6595 47.6236C21.6761 47.5835 21.6839 47.5401 21.6813 47.4962L21.677 47.4604L21.6767 47.4583L21.6764 47.457L21.6756 47.4524C21.6751 47.4497 21.6745 47.4464 21.6738 47.4427L21.6711 47.428C21.6691 47.4169 21.6666 47.4031 21.6637 47.3867C21.6549 47.3375 21.642 47.2648 21.6256 47.1713C21.5927 46.9843 21.5458 46.714 21.49 46.3814C21.3782 45.7161 21.2305 44.8019 21.0869 43.8063C20.7982 41.8043 20.5312 39.5074 20.5936 38.2286C20.6573 36.9221 20.8026 34.7742 21.0747 32.5892C21.3461 30.4098 21.7407 28.2213 22.2956 26.7905C24.1595 23.8799 25.6959 22.1781 26.9234 20.8185C27.044 20.685 27.1615 20.5548 27.2761 20.427C28.5669 18.9883 29.5019 17.8432 30.0369 15.8539L30.0374 15.8524L30.0379 15.8509L30.0771 15.6945C30.4829 14.043 30.8711 11.3117 31.068 8.53401C31.2708 5.67205 31.2739 2.71824 30.8678 0.827238ZM38.4339 28.953C42.5189 24.2448 42.7512 23.0824 43.8166 17.3524C44.7212 25.9551 37.005 33.9792 33.1006 38.0394C32.1902 38.9861 31.487 39.7173 31.1487 40.19C29.3596 42.6904 27.1393 46.6311 26.8333 50.5299C26.7104 52.0952 26.8391 53.2587 27.1243 54.1844C27.5496 55.5644 28.3228 56.4157 29.1295 57.2812C28.2393 56.6304 27.3917 55.9166 26.6558 55.188C25.5677 54.1107 24.7238 53.0007 24.3473 52.0132C24.3727 51.7982 24.2264 50.9594 24.0209 49.7812C23.8578 48.8463 23.6574 47.6976 23.476 46.4772C23.3531 46.0224 25.2083 44.3566 27.1574 42.6064C28.6268 41.287 30.1496 39.9196 30.9187 38.987C31.5939 38.1681 32.3738 37.0339 33.2553 35.7519C34.7096 33.6369 36.4405 31.1198 38.4339 28.953ZM21.3534 47.799L21.3497 47.7984L21.348 47.798C21.3518 47.7986 21.3557 47.7992 21.3595 47.7997C21.3655 47.8003 21.3715 47.8007 21.3775 47.801C21.3719 47.8007 21.3667 47.8004 21.3617 47.7999L21.3595 47.7997C21.3575 47.7994 21.3534 47.799 21.3534 47.799ZM19.3481 45.1724C16.914 42.6446 15.2705 41.0499 11.9422 37.9676C11.9422 37.9676 15.1062 39.265 16.3489 41.3189C17.4768 43.1831 19.0645 44.8756 19.3481 45.1724ZM25.8828 37.1202C26.9249 34.2804 31.4841 29.9874 30.4986 31.111C29.5129 32.2348 26.052 38.8411 23.9317 44.387C24.1994 43.3899 24.3912 42.547 24.5726 41.7498C24.9075 40.2781 25.2069 38.9623 25.8828 37.1202ZM23.9267 15.779C25.4147 11.5675 27.4909 9.28953 27.4909 9.28953C25.1934 14.3244 24.2818 17.1555 22.8419 23.7011C22.694 23.6242 22.439 19.9896 23.9267 15.779ZM16.0024 25.2287C17.2086 28.3456 17.6121 32.4917 17.7124 32.1519C16.3883 27.7159 15.2177 25.243 11.6558 20.8833C11.6558 20.8833 15.1362 22.9903 16.0024 25.2287Z" fill="white"/>
</svg>
